# xmcd
#
# Track frame offsets:
# 150
# 11847
# 28432
# 38762
# 56925
# 74192
# 88925
# 100752
# 113925
# 128847
# 142062
# 159545
# 173435
# 190010
# 202460
# 214422
#
# Disc length: 3033 seconds
#
#
# Revision: 1
# Processed by: cddbd v1.5.2PL0 Copyright (c) Steve Scherf et al.
# Submitted via: FreeRIP 2.951 
#
DISCID=000bd710
DTITLE=Various Artist - Önskedansen2 [CD2)
DYEAR=1900
DGENRE=Ethnic
TTITLE0=Gunilla Postaroff - Blå löften
TTITLE1=Perkiles - Var ska vi sova i natt
TTITLE2=Flamingokvintetten - Lilla Ann
TTITLE3=Lasse Stefanz - Främling
TTITLE4=Wizex - Sången skall klinga
TTITLE5=Jigs - Vi har så mycket att säga varandra
TTITLE6=Streaplers - Linda Marie
TTITLE7=Vikingarna - På världens tak
TTITLE8=Sten and Stanley - I lust och nöd
TTITLE9=Sven-Ingvars - Te dans me Karlstatöserna
TTITLE10=Matz Bladhs - Emma
TTITLE11=Yngve Forssells - Så gick det till när farfar var ung
TTITLE12=Berth Idoffs - En natt i Moskva
TTITLE13=Trio me Bumba - Man skall leva för varandra
TTITLE14=Ola Hermansons - Vägen hem
TTITLE15=Lotta and Anders Engberg - På min sommaräng
EXTD=
EXTT0=
EXTT1=
EXTT2=
EXTT3=
EXTT4=
EXTT5=
EXTT6=
EXTT7=
EXTT8=
EXTT9=
EXTT10=
EXTT11=
EXTT12=
EXTT13=
EXTT14=
EXTT15=
PLAYORDER=
